<?xml version="1.0" standalone="no"?>
<!DOCTYPE svg PUBLIC "-//W3C//DTD SVG 20010904//EN"
 "http://www.w3.org/TR/2001/REC-SVG-20010904/DTD/svg10.dtd">
<svg version="1.0" xmlns="http://www.w3.org/2000/svg"
 width="600.000000pt" height="600.000000pt" viewBox="0 0 600.000000 600.000000"
 preserveAspectRatio="xMidYMid meet">
<metadata>
Created by potrace 1.14, written by Peter Selinger 2001-2017
</metadata>
<g transform="translate(0.000000,600.000000) scale(0.100000,-0.100000)"
fill="#000000" stroke="none">
<path d="M2940 5965 c-30 -17 -147 -85 -260 -150 -113 -65 -266 -153 -340
-195 -74 -43 -149 -86 -167 -96 -18 -11 -112 -65 -210 -122 -98 -57 -185 -107
-193 -112 -8 -6 -67 -39 -130 -75 -63 -36 -122 -70 -130 -75 -8 -5 -40 -23
-70 -40 -30 -17 -158 -90 -285 -164 -126 -73 -300 -173 -385 -221 -85 -49
-157 -92 -160 -95 -3 -3 -25 -16 -50 -30 -25 -13 -70 -38 -100 -55 l-55 -31 0
-1503 0 -1503 155 -90 c85 -50 175 -102 200 -116 25 -14 59 -33 75 -43 17 -10
46 -27 65 -38 19 -10 129 -73 243 -140 115 -67 213 -121 218 -121 5 0 9 -4 9
-10 0 -5 4 -10 9 -10 5 0 108 -57 228 -126 120 -70 234 -135 253 -146 19 -11
49 -28 65 -38 17 -10 46 -27 65 -38 65 -36 635 -364 660 -380 14 -9 28 -15 33
-14 4 1 7 -3 7 -8 0 -6 5 -10 10 -10 6 0 27 -11 48 -23 20 -13 57 -35 82 -49
25 -14 73 -42 107 -62 l63 -37 237 137 c131 75 254 146 273 158 19 12 116 68
215 125 99 56 187 107 195 112 87 53 224 129 231 129 5 0 9 5 9 10 0 6 9 10
19 10 11 0 21 4 23 8 3 7 30 24 128 80 19 10 112 64 205 118 94 53 186 107
207 118 20 12 73 42 118 69 46 26 87 47 91 47 5 0 9 3 9 8 0 4 10 12 23 18 31
15 109 57 121 67 6 5 112 66 236 137 124 71 233 134 243 142 16 12 17 33 15
259 l-3 246 -205 -119 c-113 -65 -214 -123 -225 -129 -11 -5 -36 -19 -55 -30
-19 -12 -105 -61 -190 -110 -85 -49 -162 -94 -170 -99 -8 -5 -53 -31 -100 -58
-47 -27 -117 -68 -157 -90 -39 -23 -87 -50 -105 -61 -18 -10 -162 -93 -321
-185 -158 -92 -302 -175 -320 -185 -17 -10 -104 -60 -192 -111 -88 -50 -178
-102 -200 -115 -22 -12 -96 -55 -165 -95 -69 -39 -139 -80 -156 -90 -32 -18
-46 -15 -109 23 -11 7 -71 41 -133 77 -62 36 -125 73 -140 82 -15 10 -38 23
-52 28 -14 6 -38 20 -55 31 -16 11 -131 78 -255 149 -124 71 -231 134 -238
140 -6 6 -12 8 -12 5 0 -4 -12 3 -26 14 -15 12 -33 21 -40 21 -8 0 -14 5 -14
10 0 6 -4 10 -9 10 -5 0 -118 63 -252 141 -133 77 -261 151 -283 163 -73 41
-500 288 -526 304 -14 9 -25 14 -26 11 0 -2 -8 2 -16 8 -13 11 -14 171 -14
1263 l1 1251 40 23 c22 12 100 57 173 99 73 43 137 77 142 77 6 0 10 4 10 9 0
5 8 11 18 15 9 3 40 20 67 36 28 17 61 36 75 43 14 6 30 15 35 20 14 11 807
468 825 475 8 3 21 12 28 19 7 7 20 13 28 13 8 0 14 4 14 9 0 5 6 11 13 13 10
2 195 106 247 139 26 16 354 204 380 217 14 7 35 21 48 30 23 18 23 19 23 261
0 134 -1 244 -3 245 -2 2 -28 -11 -58 -29z"/>
<path d="M3434 3495 l0 -2244 41 22 c22 13 158 92 303 175 144 84 266 152 271
152 5 0 11 3 13 8 2 4 66 43 143 87 77 44 142 83 143 87 2 4 7 8 11 8 7 0 153
80 201 110 58 36 190 110 197 110 5 0 14 5 21 12 7 7 36 26 66 43 30 16 96 54
147 82 50 29 96 53 100 53 5 0 9 4 9 8 0 4 24 20 53 35 28 15 140 78 247 141
l195 113 0 1004 c0 993 0 1004 -20 1014 -17 8 -163 93 -215 125 -8 5 -54 31
-102 59 l-88 50 -1 -27 c0 -15 -1 -463 -1 -997 l-1 -969 -21 -18 c-12 -9 -25
-17 -29 -18 -4 0 -33 -16 -63 -35 -30 -19 -56 -35 -59 -35 -3 0 -26 -13 -52
-29 -99 -59 -188 -109 -198 -110 -7 -1 -10 420 -11 1244 0 684 -2 1246 -5
1248 -3 3 -225 130 -329 189 -19 11 -50 29 -67 40 l-33 20 -2 -1503 -3 -1502
-185 -108 c-195 -115 -219 -127 -234 -125 -6 0 -10 673 -10 1744 l-1 1742 -58
35 c-32 19 -62 35 -68 35 -5 0 -9 5 -9 12 0 6 -3 8 -7 5 -3 -4 -13 -1 -22 6
-14 12 -78 50 -214 126 -21 11 -41 21 -45 21 -5 0 -8 -1010 -8 -2245z"/>
<path d="M2940 4965 c-19 -13 -41 -24 -47 -24 -7 -1 -13 -5 -13 -11 0 -5 -4
-10 -10 -10 -10 0 -487 -272 -507 -289 -7 -6 -14 -11 -17 -11 -6 0 -337 -190
-368 -212 -16 -11 -28 -17 -28 -13 0 3 -6 1 -12 -5 -11 -9 -289 -171 -521
-302 -31 -18 -78 -46 -104 -63 l-47 -30 -1 -993 c0 -547 2 -997 5 -1001 4 -6
193 -116 410 -239 25 -14 77 -44 115 -67 39 -22 77 -44 85 -48 8 -4 29 -16 45
-27 17 -11 44 -26 60 -35 17 -8 46 -25 65 -36 19 -12 55 -33 79 -46 24 -14
104 -61 178 -104 75 -43 136 -79 138 -79 1 0 80 -46 176 -102 96 -56 188 -108
204 -116 17 -8 41 -23 55 -32 14 -9 47 -29 73 -44 l48 -26 -1 42 c-1 24 -1
880 0 1903 0 1023 0 1902 0 1953 0 103 -3 106 -60 67z m-374 -1965 c0 -682 -4
-1240 -8 -1240 -5 0 -68 34 -141 76 -73 42 -150 87 -172 100 -22 12 -152 87
-290 167 l-250 144 -3 752 -2 751 25 12 c14 6 25 15 25 20 0 4 4 8 9 8 5 0 76
38 157 85 81 47 148 85 150 85 2 0 194 111 224 130 26 16 164 95 174 99 5 2
25 14 44 27 19 13 40 24 46 24 9 0 12 -305 12 -1240z"/>
</g>
</svg>
