<?xml version="1.0" encoding="utf-8"?>
<!-- Generator: Adobe Illustrator 24.1.2, SVG Export Plug-In . SVG Version: 6.00 Build 0)  -->
<svg version="1.1" id="Ebene_1" xmlns="http://www.w3.org/2000/svg" xmlns:xlink="http://www.w3.org/1999/xlink" x="0px" y="0px"
	 viewBox="0 0 512 512" xml:space="preserve">
<style type="text/css">
	.st0{fill:#FFFFFF;}
</style>
<path class="st0" d="M252.8,85.2c-12.3,0-22.3,10-22.3,22.3c0,6.5,2.8,12.4,7.3,16.5c-17.2,3.1-33.4,10.6-48.2,21.6
	c4.1,1.4,8.6,2.7,13.5,3.8c16.8,3.6,37.6,5,58,4.4c20.4-0.6,40.6-3.2,56.4-7.1c1.2-0.3,2.4-0.6,3.6-1c-16.1-12-33.8-19.8-52.7-22.3
	c4.1-4,6.6-9.6,6.6-15.8C275.1,95.1,265.1,85.2,252.8,85.2L252.8,85.2z M173.6,159.4c-4.5,4.5-8.9,9.3-13.1,14.4
	c26.3,9.5,58.8,15.9,94.8,15.9c36.5,0,69.3-5.5,95.4-15.2c-4.1-5.1-8.4-9.9-12.8-14.3c-4.8,1.7-10.1,3.2-15.8,4.6
	c-17.5,4.4-38.8,7-60.4,7.7c-21.6,0.6-43.5-0.7-62.5-4.8C189.9,165.5,181.2,163,173.6,159.4L173.6,159.4z M72.3,161.2
	c-12.3-0.2-25,3.9-34.3,13.8s-15,24.7-16.3,44.5c-1.5,22,1,38.3,7,50.8c5.9,12.5,15.4,20.6,25.3,26.2c9.8,5.5,19.9,9.2,29.5,13.2
	c-1.4-6.9-2.3-14.1-2.6-21.7c-6.5-2.6-12.6-4.9-17.7-7.8c-7.8-4.4-13.5-9.4-17.6-18c-4.1-8.6-6.5-21.5-5.2-41.5
	c1.1-17,5.7-27.1,11.2-32.9s12.2-8.1,20.5-8c10.4,0.2,22.7,5.1,33,12.2c3.2-5.5,6.6-10.9,10.3-16.1
	C102.6,167.2,87.5,161.4,72.3,161.2L72.3,161.2z M460.2,167.8c-11.8-0.2-23.4,4.8-32.4,19.8h0c-11.3,19.1,10.3,70.7-16.5,78.2
	c0-0.3-0.1-0.7-0.1-1l-0.1,0.9c-17.2-1.8-28,2.6-35.3,9.7c-7.3,7-11.4,17.5-12.1,28.8c-0.7,11.3,2.1,23.2,7.3,32
	c3.4,5.7,7.5,9.9,12.4,12.4l-0.3,1.6c28.7,2.6,82-3.2,86.1-57.6c3.1-40.5-31-111.5,15.6-89.8c-3.6-11.4,1-19.2,12.1-21.1
	C487,175,473.5,168.1,460.2,167.8L460.2,167.8z M133.7,182.8c-21.3,28.5-34.4,61-34.4,97.3c0,43.4,16.5,69.5,44,86.7
	c27.5,17.2,67.3,24.4,112.1,24.4c44.8,0,84.7-7.2,112.4-24.4c1.6-1,3.2-2,4.7-3.1c-7.2-4.4-13.2-10.8-17.5-18
	c-7.4-12.4-10.8-27.7-9.9-42.7c0.9-15,6.4-30.1,17.8-41.1c10-9.6,24.5-15.4,42.3-15.2c1,0,2,0.1,3,0.1
	c-5.5-23.6-16.5-45.5-30.8-63.8c-31.8,16.6-74.1,25.4-121.9,25.4C207.3,208.4,165.1,197.7,133.7,182.8L133.7,182.8z M359.9,391.9
	c-29.7,13.1-65.9,18-104.6,18c-38.5,0-74.4-4.8-103.9-17.7c5.1,11.8,13.5,20.5,24.6,27.2c19.2,11.7,47.4,16.8,79.4,16.8
	s60.3-5.1,79.6-16.8C346.3,412.6,354.7,403.9,359.9,391.9L359.9,391.9z"/>
</svg>
